<?xml version="1.0" encoding="utf-8"?>
<!-- Generator: Adobe Illustrator 16.0.0, SVG Export Plug-In . SVG Version: 6.00 Build 0)  -->
<!DOCTYPE svg PUBLIC "-//W3C//DTD SVG 1.1//EN" "http://www.w3.org/Graphics/SVG/1.1/DTD/svg11.dtd">
<svg version="1.1" id="图层_1" xmlns="http://www.w3.org/2000/svg" xmlns:xlink="http://www.w3.org/1999/xlink" x="0px" y="0px"
	 width="66.187px" height="25.834px" viewBox="-20.921 -8.166 66.187 25.834" enable-background="new -20.921 -8.166 66.187 25.834"
	 xml:space="preserve">
<g>
	<g>
		<defs>
			<rect id="SVGID_1_" x="-20.921" y="-8.155" width="66.226" height="25.823"/>
		</defs>
		<clipPath id="SVGID_2_">
			<use xlink:href="#SVGID_1_"  overflow="visible"/>
		</clipPath>
		<path clip-path="url(#SVGID_2_)" fill="#58595B" d="M-8.784-2.189v-1.456l1.144,0.007c0.641,0,1.124,0.113,1.442,0.346
			c0.36,0.258,0.54,0.642,0.54,1.15v5.35c0,1.199-0.598,1.799-1.79,1.799H-8.47v-1.45l0.748,0.008c0.271,0,0.443-0.019,0.516-0.047
			c0.153-0.068,0.229-0.236,0.229-0.513V2.508l-1.697,0.008V1.224l1.697-0.008V0.191l-1.697-0.009v-1.28h1.693l0.004-0.493
			c0.008-0.237-0.035-0.399-0.12-0.488c-0.091-0.078-0.29-0.114-0.598-0.11H-8.784z M-12.347-2.189v-1.456l1.261,0.007
			c1.254,0,1.877,0.556,1.873,1.666l-0.007,5.181C-9.228,4-9.448,4.516-9.893,4.759c-0.309,0.164-0.764,0.25-1.362,0.25h-0.77
			l-0.006-1.451l0.668,0.008c0.321,0,0.521-0.019,0.591-0.047c0.134-0.058,0.197-0.221,0.197-0.487V2.508l-1.666,0.008V1.224h1.666
			V0.182h-1.666v-1.28l1.666-0.007v-0.518c0-0.202-0.021-0.336-0.074-0.41c-0.065-0.108-0.211-0.159-0.438-0.159h-0.24
			L-12.347-2.189z M-12.37-4.079v-1.375c0.18-0.04,0.304-0.096,0.373-0.177c0.063-0.081,0.122-0.225,0.167-0.433
			c0.102-0.509,0.182-0.833,0.233-0.978c0.124-0.367,0.355-0.634,0.692-0.803c0.249-0.125,0.517-0.187,0.796-0.187h1.938
			c0.686,0,1.168,0.162,1.452,0.488c0.17,0.196,0.33,0.617,0.472,1.263c0.07,0.354,0.149,0.576,0.22,0.675
			c0.068,0.092,0.2,0.145,0.391,0.161v1.365h-0.231c-0.535,0-0.932-0.152-1.193-0.456c-0.141-0.164-0.328-0.682-0.554-1.55
			c-0.06-0.241-0.148-0.404-0.264-0.488c-0.111-0.083-0.278-0.123-0.505-0.123h-1.045c-0.438,0-0.72,0.078-0.845,0.222
			c-0.073,0.089-0.183,0.402-0.323,0.941c-0.151,0.569-0.335,0.949-0.566,1.146C-11.394-4.193-11.799-4.089-12.37-4.079
			 M-14.37-1.292h-1.642l0.014,1.078c0,0.161,0.012,0.26,0.037,0.295c0.056,0.071,0.16,0.108,0.317,0.108h0.804
			c0.222,0,0.353-0.028,0.4-0.077c0.054-0.06,0.082-0.183,0.082-0.363L-14.37-1.292z M-16.012-2.451h1.642l0.012-1.035
			c0-0.14-0.05-0.236-0.143-0.298c-0.048-0.037-0.189-0.056-0.415-0.056h-0.664c-0.203,0-0.328,0.031-0.37,0.092
			c-0.034,0.041-0.047,0.136-0.047,0.286L-16.012-2.451z M-17.493,3.646V2.258l1.543-0.012V1.369l-0.456,0.009
			c-0.328,0.007-0.585-0.1-0.772-0.316c-0.136-0.164-0.207-0.524-0.207-1.082l-0.006-3.954c0-0.757,0.36-1.13,1.085-1.13h0.345
			l0.01-0.903h-1.543v-1.382h1.543v-0.713h1.515v0.713h1.445v1.38h-1.445v0.904h0.284c0.374,0,0.665,0.091,0.869,0.276
			c0.136,0.126,0.22,0.263,0.238,0.417c0.013,0.077,0.016,0.275,0.016,0.593v3.809c0,0.496-0.046,0.826-0.146,0.986
			c-0.167,0.272-0.451,0.408-0.855,0.401l-0.407-0.007v0.877h1.427l0.018,1.399h-1.445V5.01h-1.515V3.646H-17.493z M-20.921,3.383
			h2.858v1.425h-2.858V3.383z M-20.921-2.55h2.858v1.427h-2.858V-2.55z M-20.921-7.854h2.858v1.427h-2.858V-7.854z"/>
	</g>
	<g>
		<defs>
			<rect id="SVGID_3_" x="-20.921" y="-8.155" width="66.226" height="25.823"/>
		</defs>
		<clipPath id="SVGID_4_">
			<use xlink:href="#SVGID_3_"  overflow="visible"/>
		</clipPath>
		<path clip-path="url(#SVGID_4_)" fill="#58595B" d="M8.876-0.003h1.535l0.138,2.061c0.04,0.583,0.146,0.974,0.316,1.174
			c0.134,0.15,0.314,0.237,0.541,0.265v1.413c-0.648-0.026-1.178-0.213-1.59-0.566c-0.47-0.406-0.729-0.966-0.772-1.676L8.876-0.003
			z M4.582-0.003h1.459v2.638H4.582V-0.003z M4.483-1.939h3.713c0.735,0,1.104-0.278,1.104-0.832v-0.823H4.483V-1.939z M4.483-5.021
			H9.3v-0.812c0-0.253-0.098-0.465-0.292-0.647c-0.148-0.139-0.34-0.209-0.585-0.209H4.483V-5.021z M0.632-0.003h1.535v2.662
			c0,0.23,0.073,0.414,0.22,0.567C2.572,3.4,2.77,3.487,2.991,3.487h4.864v1.428H2.763c-0.665,0-1.206-0.219-1.627-0.656
			C0.8,3.909,0.632,3.49,0.632,3.003V-0.003z M2.954-1.939v-1.655h-4.792v0.72c0,0.264,0.056,0.459,0.167,0.593
			C-1.495-2.055-1.247-1.94-0.927-1.94h3.881V-1.939z M-1.838-5.021h4.792v-1.668h-3.69c-0.737,0-1.103,0.31-1.103,0.93V-5.021z
			 M10.824-6.093v3.49c0,0.694-0.249,1.241-0.745,1.636C9.709-0.67,9.227-0.521,8.629-0.521h-9.92c-0.591,0-1.081-0.183-1.464-0.555
			C-3.167-1.464-3.37-1.959-3.37-2.559v-3.628c0-0.56,0.229-1.036,0.684-1.434c0.373-0.318,0.821-0.473,1.345-0.473h9.97
			c0.58,0,1.072,0.155,1.473,0.473C10.582-7.243,10.824-6.73,10.824-6.093 M-3.944,4.914V3.496c0.502-0.051,0.777-0.458,0.819-1.221
			l0.127-2.279h1.539l-0.14,2.511C-1.636,3.24-1.837,3.802-2.193,4.188C-2.57,4.601-3.15,4.842-3.944,4.914"/>
	</g>
	<g>
		<defs>
			<rect id="SVGID_5_" x="-20.921" y="-8.155" width="66.226" height="25.823"/>
		</defs>
		<clipPath id="SVGID_6_">
			<use xlink:href="#SVGID_5_"  overflow="visible"/>
		</clipPath>
		<path clip-path="url(#SVGID_6_)" fill="#58595B" d="M23.824,3.548V1.542h-2.909l0.005,1.502c0.007,0.334,0.179,0.504,0.516,0.504
			H23.824z M20.916,0.114h2.912v-2.015h-2.912V0.114z M20.916-3.329h2.909v-1.892h-2.82l-0.088,0.154V-3.329z M18.397-2.351v-2.013
			c0.522-0.537,0.928-1.116,1.208-1.737c0.254-0.555,0.468-1.231,0.639-2.023h1.736c-0.084,0.336-0.219,0.823-0.411,1.449h2.255
			v-1.47h1.53v1.471h2.88v1.453h-2.88v1.892h2.88v1.426h-2.88v2.017h2.88v1.428h-2.88v2.006h2.88v1.45h-7.213
			c-0.548,0-0.948-0.124-1.219-0.368c-0.277-0.269-0.419-0.621-0.419-1.05v-6.625C19.128-2.815,18.802-2.58,18.397-2.351
			 M13.087,3.548h4.922v1.427h-4.922V3.548z M15.44-8.032h1.833l-2.464,4.191h1.014l0.329-0.597l1.908,0.014l-3.14,5.185h2.909V2.19
			l-3.269,0.007c-1.006,0.006-1.512-0.304-1.512-0.936c0-0.312,0.209-0.819,0.638-1.521l1.299-2.153l-0.892,0.007
			c-0.377,0.007-0.667-0.088-0.871-0.285c-0.171-0.166-0.258-0.375-0.258-0.635c0-0.311,0.139-0.702,0.414-1.174L15.44-8.032z"/>
	</g>
	<g>
		<defs>
			<rect id="SVGID_7_" x="-20.921" y="-8.155" width="66.226" height="25.823"/>
		</defs>
		<clipPath id="SVGID_8_">
			<use xlink:href="#SVGID_7_"  overflow="visible"/>
		</clipPath>
		<path clip-path="url(#SVGID_8_)" fill="#58595B" d="M42.22,2.38h1.657c0.08,0.369,0.182,0.623,0.31,0.766
			c0.165,0.202,0.518,0.357,1.062,0.46l-0.018,1.439C43.391,5.003,42.387,4.116,42.22,2.38 M41.619,0.667h3.136V1.85h-3.136V0.667z
			 M39.842-1.154h2.751c0.434,0,0.646-0.176,0.646-0.522v-0.204h-3.397V-1.154z M39.842-3.045h3.397v-0.138
			c0-0.342-0.166-0.508-0.506-0.508H39.84v0.646H39.842z M33.556,0.667h3.146V1.85h-3.146V0.667z M33.194-1.879v-1.166h5.091V-3.69
			h-5.091v-1.292h5.091v-0.611h1.558v0.611h3.315c1.105,0,1.659,0.521,1.659,1.566v0.37h0.488v1.166h-0.488v0.471
			c0,0.45-0.123,0.802-0.356,1.066c-0.271,0.296-0.602,0.448-0.988,0.448h-3.629V2.75c0,0.959-0.148,1.582-0.437,1.87
			c-0.287,0.284-0.831,0.427-1.635,0.427h-0.836V3.595h0.597c0.335,0,0.551-0.06,0.639-0.18c0.077-0.106,0.114-0.395,0.114-0.856
			V0.106h-5.092v-1.26h5.091v-0.726H33.194z M33.119,5.047V3.595c0.414-0.05,0.729-0.18,0.945-0.378
			c0.188-0.177,0.312-0.454,0.372-0.837h1.674c-0.104,0.902-0.417,1.569-0.937,1.999C34.693,4.784,34.007,5.003,33.119,5.047
			 M29.948,5.047V3.632c0.251-0.014,0.418-0.073,0.508-0.174c0.146-0.167,0.223-0.447,0.223-0.837v-7.652
			c0-0.632,0.096-1.089,0.296-1.378c0.424-0.612,1.115-0.92,2.068-0.92h4.484v-0.825h1.538v0.823h6.24v1.43h-11.65
			c-0.532,0-0.867,0.041-1.009,0.123c-0.158,0.101-0.274,0.212-0.334,0.343c-0.074,0.136-0.107,0.363-0.107,0.679v7.286
			c0,1.016-0.343,1.744-1.022,2.191c-0.334,0.222-0.719,0.334-1.15,0.334C30.025,5.054,29.999,5.05,29.948,5.047"/>
	</g>
	<g>
		<defs>
			<rect id="SVGID_9_" x="-20.921" y="-8.155" width="66.226" height="25.823"/>
		</defs>
		<clipPath id="SVGID_10_">
			<use xlink:href="#SVGID_9_"  overflow="visible"/>
		</clipPath>
		<path clip-path="url(#SVGID_10_)" fill="#58595B" d="M-12.002,15.375c0.217-1.159,0.768-4.979,0.928-6.555
			c0.043-0.407,0.391-0.514,0.955-0.514c0.695,0,0.957,0.229,0.957,0.565c0,0.716-1.146,6.758-1.463,8.148
			c-0.128,0.581-0.985,0.62-1.521,0.62c-0.509,0-1.536-0.037-1.667-0.578c-0.188-0.809-0.855-4.586-1.128-6.477
			c-0.014-0.093-0.074-0.148-0.131-0.148s-0.116,0.054-0.127,0.148c-0.323,1.891-1.104,5.683-1.278,6.477
			c-0.13,0.539-1.101,0.578-1.634,0.578c-0.551,0-1.335-0.052-1.463-0.62c-0.335-1.393-1.346-7.432-1.346-8.151
			c0-0.291,0.272-0.563,0.952-0.563c0.58,0,0.944,0.104,0.972,0.511c0.174,1.576,0.724,5.41,0.912,6.555
			c0.057,0.286,0.159,0.296,0.263,0.296c0.1,0,0.171-0.01,0.244-0.296c0.23-1.13,0.942-4.747,1.202-6.27
			c0.059-0.368,0.437-0.651,1.349-0.651c0.939,0,1.271,0.313,1.329,0.651c0.263,1.551,0.928,5.14,1.174,6.27
			c0.06,0.286,0.187,0.296,0.292,0.296C-12.146,15.669-12.062,15.659-12.002,15.375"/>
	</g>
	<g>
		<defs>
			<rect id="SVGID_11_" x="-20.921" y="-8.155" width="66.226" height="25.823"/>
		</defs>
		<clipPath id="SVGID_12_">
			<use xlink:href="#SVGID_11_"  overflow="visible"/>
		</clipPath>
		<path clip-path="url(#SVGID_12_)" fill="#58595B" d="M-6.298,12.935c0,0.38,0.19,0.458,0.724,0.458h1.378
			c0.563,0,0.753-0.073,0.753-0.566c0-0.971-0.304-1.391-1.332-1.391c-1.114,0-1.523,0.513-1.523,1.349V12.935z M-5.775,14.443
			c-0.421,0.016-0.508,0.136-0.508,0.458c0,0.985,0.594,1.419,2.16,1.419c0.635,0,1.159-0.068,1.562-0.137
			c0.29-0.053,0.612,0.068,0.612,0.499c0,0.308-0.13,0.568-0.322,0.674c-0.377,0.188-1.099,0.311-2.07,0.311
			c-2.68,0-3.793-0.93-3.793-3.331v-0.758c0-2.696,1.447-3.399,3.401-3.399c2.247,0,2.997,1.057,2.997,2.767
			c0,1.162-0.213,1.351-1.59,1.416L-5.775,14.443z"/>
	</g>
	<g>
		<defs>
			<rect id="SVGID_13_" x="-20.921" y="-8.155" width="66.226" height="25.823"/>
		</defs>
		<clipPath id="SVGID_14_">
			<use xlink:href="#SVGID_13_"  overflow="visible"/>
		</clipPath>
		<path clip-path="url(#SVGID_14_)" fill="#4296A6" d="M3.494,10.251H3.19c-0.522,0-0.652,0.022-0.652,0.469v4.422
			c0,0.446,0.13,0.485,0.652,0.485h0.321c1.172,0,1.519-0.603,1.519-2.75C5.029,10.789,4.683,10.251,3.494,10.251 M1.264,17.535
			c-0.897,0-1.317-0.355-1.317-1.027V9.384c0-0.646,0.42-1.025,1.317-1.025h2.664c3.201,0,3.793,2.28,3.793,4.576
			c0,2.291-0.592,4.601-3.793,4.601H1.264z"/>
	</g>
	<g>
		<defs>
			<rect id="SVGID_15_" x="-20.921" y="-8.155" width="66.226" height="25.823"/>
		</defs>
		<clipPath id="SVGID_16_">
			<use xlink:href="#SVGID_15_"  overflow="visible"/>
		</clipPath>
		<path clip-path="url(#SVGID_16_)" fill="#4296A6" d="M13.181,10.251c-1.214,0-1.419,0.471-1.419,2.654
			c0,2.308,0.361,2.713,1.419,2.713c1.103,0,1.36-0.368,1.36-2.713C14.542,10.682,14.228,10.251,13.181,10.251 M13.181,8.226
			c2.525,0,4.117,1.439,4.117,4.45c0,3.966-1.97,4.992-4.133,4.992c-2.186,0-4.169-1.026-4.169-4.542
			C8.996,9.588,10.604,8.226,13.181,8.226"/>
	</g>
	<g>
		<defs>
			<rect id="SVGID_17_" x="-20.921" y="-8.155" width="66.226" height="25.823"/>
		</defs>
		<clipPath id="SVGID_18_">
			<use xlink:href="#SVGID_17_"  overflow="visible"/>
		</clipPath>
		<path clip-path="url(#SVGID_18_)" fill="#4296A6" d="M23.104,15.575c0.418,0,0.754-0.038,1.188-0.12
			c0.45-0.068,0.711,0.243,0.711,0.999c0,0.472-0.103,0.781-0.335,0.889c-0.392,0.202-1.22,0.325-2.054,0.325
			c-2.898,0-4.114-1.66-4.114-4.653c0-2.944,1.216-4.79,4.217-4.79c0.838,0,1.461,0.109,1.779,0.27c0.291,0.15,0.436,0.365,0.436,1
			c0,0.701-0.303,0.958-0.624,0.901c-0.402-0.066-0.823-0.107-1.201-0.107c-1.319,0-1.726,0.488-1.726,2.741
			C21.38,15.104,21.772,15.575,23.104,15.575"/>
	</g>
	<g>
		<defs>
			<rect id="SVGID_19_" x="-20.921" y="-8.155" width="66.226" height="25.823"/>
		</defs>
		<clipPath id="SVGID_20_">
			<use xlink:href="#SVGID_19_"  overflow="visible"/>
		</clipPath>
		<path clip-path="url(#SVGID_20_)" fill="#58595B" d="M30.244,14.919c0-0.407-0.191-0.56-0.768-0.56h-0.596
			c-0.81,0-1.055,0.261-1.055,1.123c0,0.943,0.201,1.055,1.391,1.055c0.811,0,1.027-0.164,1.027-0.796V14.919L30.244,14.919z
			 M32.083,16.765c0,0.903-1.551,0.875-3.087,0.875c-2.258,0-3.026-0.497-3.026-1.968c0-1.39,0.422-2.01,2.509-2.214l1.23-0.12
			c0.42-0.041,0.522-0.135,0.522-0.728s-0.103-0.998-1.437-0.998c-0.563,0-1.2,0.052-1.664,0.148c-0.03,0-0.058,0.01-0.097,0.01
			c-0.252,0-0.483-0.158-0.483-0.619c0-0.767,1.131-0.973,2.436-0.973c2.286,0,3.098,0.599,3.098,2.333L32.083,16.765L32.083,16.765
			z"/>
	</g>
	<g>
		<defs>
			<rect id="SVGID_21_" x="-20.921" y="-8.155" width="66.226" height="25.823"/>
		</defs>
		<clipPath id="SVGID_22_">
			<use xlink:href="#SVGID_21_"  overflow="visible"/>
		</clipPath>
		<path clip-path="url(#SVGID_22_)" fill="#58595B" d="M37.948,11.582c-0.26,0-0.565-0.035-0.954-0.035
			c-0.885,0-0.971,0.12-0.971,0.619v4.937c0,0.405-0.49,0.485-0.943,0.485c-0.434,0-0.971-0.08-0.971-0.485v-5.867
			c0-0.554,0.317-0.73,0.797-0.823c0.711-0.139,1.821-0.233,2.462-0.233c0.797,0,1.031,0.138,1.031,0.748
			C38.399,11.287,38.281,11.582,37.948,11.582"/>
	</g>
	<g>
		<defs>
			<rect id="SVGID_23_" x="-20.921" y="-8.155" width="66.226" height="25.823"/>
		</defs>
		<clipPath id="SVGID_24_">
			<use xlink:href="#SVGID_23_"  overflow="visible"/>
		</clipPath>
		<path clip-path="url(#SVGID_24_)" fill="#58595B" d="M40.745,12.935c0,0.38,0.186,0.458,0.723,0.458h1.376
			c0.565,0,0.754-0.073,0.754-0.566c0-0.971-0.306-1.391-1.334-1.391c-1.114,0-1.519,0.513-1.519,1.349V12.935z M41.267,14.443
			c-0.425,0.016-0.507,0.136-0.507,0.458c0,0.985,0.589,1.419,2.155,1.419c0.637,0,1.159-0.068,1.567-0.137
			c0.284-0.053,0.605,0.068,0.605,0.499c0,0.308-0.133,0.568-0.321,0.674c-0.377,0.188-1.1,0.311-2.07,0.311
			c-2.681,0-3.794-0.93-3.794-3.331v-0.758c0-2.696,1.449-3.399,3.401-3.399c2.247,0,3,1.057,3,2.767
			c0,1.162-0.216,1.351-1.594,1.416L41.267,14.443z"/>
	</g>
</g>
</svg>
